<?xml version="1.0" standalone="no"?>
<!DOCTYPE svg PUBLIC "-//W3C//DTD SVG 20010904//EN"
 "http://www.w3.org/TR/2001/REC-SVG-20010904/DTD/svg10.dtd">
<svg version="1.0" xmlns="http://www.w3.org/2000/svg"
 width="421.000000pt" height="421.000000pt" viewBox="0 0 421.000000 421.000000"
 preserveAspectRatio="xMidYMid meet">
<metadata>
Created by potrace 1.11, written by Peter Selinger 2001-2013
</metadata>
<g transform="translate(0.000000,421.000000) scale(0.100000,-0.100000)"
fill="#000000" stroke="none">
<path d="M2107 3955 c-20 -7 -58 -30 -84 -51 -117 -98 -203 -147 -280 -160
-15 -2 -34 -7 -40 -9 -7 -2 -13 2 -13 10 0 36 -124 13 -235 -43 -109 -55 -285
-190 -285 -220 0 -7 -5 -12 -11 -12 -5 0 -7 -4 -4 -10 3 -5 2 -10 -3 -10 -4 0
-9 -29 -9 -65 0 -45 -5 -69 -17 -80 -9 -9 -17 -21 -17 -26 -2 -13 -5 -21 -16
-49 -15 -38 -15 -103 2 -184 13 -63 13 -79 1 -120 -18 -59 -15 -162 6 -202 11
-20 17 -55 16 -107 0 -41 2 -80 5 -84 3 -5 8 -42 12 -83 3 -41 10 -93 15 -115
12 -57 12 -155 0 -155 -6 0 -10 4 -10 8 0 13 -44 12 -63 -2 -26 -20 -36 -68
-32 -154 3 -70 38 -262 50 -282 3 -5 -16 -8 -42 -8 -95 0 -104 -2 -130 -28
l-26 -26 7 -176 c4 -98 9 -202 11 -232 5 -87 18 -352 19 -382 1 -19 -13 -42
-51 -81 -46 -48 -133 -187 -117 -187 4 0 2 -6 -4 -12 -8 -11 -28 -69 -38 -113
-1 -5 -10 -39 -19 -75 -9 -36 -19 -76 -22 -89 -2 -14 -6 -28 -8 -32 -9 -13 20
-16 174 -18 85 -1 158 -4 163 -7 12 -7 2164 -8 2176 0 5 3 83 6 173 7 90 1
169 4 175 6 8 3 2 43 -21 131 -64 246 -100 319 -207 419 -21 20 -35 42 -33 52
2 10 6 85 9 167 4 82 9 176 11 209 4 51 14 231 19 355 2 38 -14 79 -38 99 -8
7 -44 13 -81 13 l-67 1 6 31 c3 17 8 42 11 56 3 14 7 36 10 50 3 14 7 36 10
50 3 14 8 61 10 105 6 133 -34 192 -101 149 l-27 -18 12 23 c15 26 18 41 37
151 14 81 18 97 31 130 14 34 16 150 4 183 -15 40 -17 139 -3 165 7 12 10 22
7 22 -3 0 -1 8 4 18 6 11 12 30 15 43 3 13 7 35 11 49 19 87 2 184 -43 248
-11 15 -23 43 -27 62 -16 80 -128 227 -186 245 -11 4 -19 10 -19 15 0 5 -9 12
-20 15 -29 9 -25 18 17 40 46 25 76 86 61 124 -5 14 -9 28 -8 31 4 18 -33 5
-73 -25 l-46 -35 -43 17 c-24 9 -48 22 -54 27 -6 6 -25 22 -43 36 -18 14 -39
31 -46 38 -15 13 -98 51 -130 58 -11 3 -43 7 -71 9 -67 4 -92 12 -123 41 -14
13 -31 24 -38 24 -7 0 -13 4 -13 9 0 10 -45 27 -90 35 -14 2 -42 -2 -63 -9z"/>
</g>
</svg>
